<svg width="50" height="50" viewBox="0 0 50 50" fill="none" xmlns="http://www.w3.org/2000/svg">
<circle opacity="0.1" cx="25" cy="25" r="25" fill="#F54749"/>
<path d="M20.87 34.28C20.08 34.28 19.33 34.09 18.67 33.71C17.11 32.81 16.25 30.98 16.25 28.57V21.44C16.25 19.02 17.11 17.2 18.67 16.3C20.23 15.4 22.24 15.57 24.34 16.78L30.51 20.34C32.6 21.55 33.76 23.21 33.76 25.01C33.76 26.81 32.61 28.47 30.51 29.68L24.34 33.24C23.13 33.93 21.95 34.28 20.87 34.28ZM20.87 17.22C20.33 17.22 19.85 17.34 19.42 17.59C18.34 18.21 17.75 19.58 17.75 21.44V28.56C17.75 30.42 18.34 31.78 19.42 32.41C20.5 33.04 21.98 32.86 23.59 31.93L29.76 28.37C31.37 27.44 32.26 26.25 32.26 25C32.26 23.75 31.37 22.56 29.76 21.63L23.59 18.07C22.61 17.51 21.69 17.22 20.87 17.22Z" fill="#F54749"/>
</svg>
